# xmcd CD database file
#
# Track frame offsets:
#	150
#	23360
#	49240
#	72415
#	104585
#	124025
#	155030
#	173945
#	198090
#	215515
#	243870
#	278315
#	297720
#
# Disc length: 4386 seconds
#
# Revision: 0
# Processed by: cddbd v1.5.2PL0 Copyright (c) Steve Scherf et al.
# Submitted via: CDex 1.51
#
DISCID=bc11200d
DTITLE=Tortoise - Cambridge 1998
DYEAR=1998
DGENRE=Jazz
TTITLE0=Joy
TTITLE1=The Taunt and Tame
TTITLE2=In Sarah, Menchen, Christ
TTITLE3=Cornpone Brunch
TTITLE4=Night air
TTITLE5=Djed pt.1
TTITLE6=Djed pt.2
TTITLE7=Tin Cans and Twine
TTITLE8=Ten Day Interval
TTITLE9=Swung From the Gutters
TTITLE10=TNT
TTITLE11=The Equator
TTITLE12=I Set My Face to the Hill
EXTD=YEAR: 1998
EXTT0=
EXTT1=
EXTT2=
EXTT3=
EXTT4=
EXTT5=
EXTT6=
EXTT7=
EXTT8=
EXTT9=
EXTT10=
EXTT11=
EXTT12=
PLAYORDER=
